<svg xmlns="http://www.w3.org/2000/svg" width="16" height="16" fill="none" viewBox="0 0 16 16">
    <g class="gitpod">
        <path fill="url(#a)" fill-rule="evenodd"
            d="M9.318.775a1.548 1.548 0 0 1-.565 2.097L4.229 5.49a.39.39 0 0 0-.194.337V9.94c0 .14.074.268.194.337l3.58 2.072a.382.382 0 0 0 .383 0l3.58-2.072a.39.39 0 0 0 .193-.337V7.382l-3.22 1.84a1.507 1.507 0 0 1-2.067-.584 1.547 1.547 0 0 1 .576-2.093l4.607-2.633C13.264 3.11 15 4.137 15 5.77v4.482c0 1.05-.555 2.019-1.455 2.54l-4.112 2.38a2.857 2.857 0 0 1-2.866 0l-4.112-2.38A2.932 2.932 0 0 1 1 10.25V5.516c0-1.05.555-2.02 1.455-2.54L7.247.203a1.507 1.507 0 0 1 2.07.572Z"
            class="Vector" clip-rule="evenodd" />
    </g>
    <defs>
        <linearGradient id="a" x1="11.537" x2="4.22" y1="2.352" y2="13.71" class="a"
            gradientUnits="userSpaceOnUse">
            <stop stop-color="#FFB45B" />
            <stop offset="1" stop-color="#FF8A00" />
        </linearGradient>
    </defs>
</svg>
  